<svg width="150" height="24" viewBox="0 0 150 24" fill="none" xmlns="http://www.w3.org/2000/svg">
<path d="M74.8054 18.2631H77.0478V0.102112H74.8054V18.2631Z" fill="#231F20"/>
<path d="M66.5669 18.4419C68.8867 18.4419 70.8482 17.8542 71.8431 17.4958V9.20823H66.1855V10.9983H69.6768V16.1401C69.1669 16.396 68.172 16.6003 66.7203 16.6003C62.719 16.6003 60.0942 14.0168 60.0942 9.64294C60.0942 5.31963 62.8217 2.71038 67.0006 2.71038C68.7332 2.71038 69.88 3.04327 70.7971 3.45219L71.3333 1.63666C70.5943 1.27864 69.0402 0.842937 67.0517 0.842937C61.292 0.842937 57.7761 4.60327 57.7497 9.74475C57.7497 12.4314 58.6672 14.7332 60.1453 16.1656C61.8285 17.7768 63.9681 18.4419 66.5669 18.4419Z" fill="#231F20"/>
<path fill-rule="evenodd" clip-rule="evenodd" d="M20.8762 15.2962C20.8762 16.3699 20.9269 17.4195 21.08 18.2631H19.0411L18.863 16.7031H18.7866C18.0989 17.6753 16.7734 18.5444 15.0151 18.5444C12.5177 18.5444 11.2436 16.7788 11.2436 14.9891C11.2436 11.9963 13.894 10.3593 18.6591 10.3851V10.1292C18.6591 9.10575 18.3788 7.2641 15.8562 7.2641C14.7094 7.2641 13.5117 7.62245 12.6449 8.18476L12.1357 6.70079C13.155 6.03567 14.6327 5.60129 16.1875 5.60129C19.959 5.60129 20.8762 8.18476 20.8762 10.6654V15.2962ZM18.7098 11.9451C16.2636 11.8935 13.486 12.3286 13.486 14.7332C13.486 16.1914 14.4545 16.8823 15.6013 16.8823C17.2068 16.8823 18.2257 15.8581 18.5824 14.8102C18.6591 14.5798 18.7098 14.3243 18.7098 14.0935V11.9451Z" fill="#231F20"/>
<path d="M10.0247 17.8029C9.4385 18.11 8.13896 18.5444 6.48243 18.5444C2.76198 18.5444 0.341064 15.9867 0.341064 12.201C0.341064 8.38905 2.94014 5.62674 6.96655 5.62674C8.29144 5.62674 9.46386 5.95963 10.0754 6.26641L9.56595 8.00591C9.03079 7.69881 8.18968 7.41715 6.96655 7.41715C4.13792 7.41715 2.60884 9.51467 2.60884 12.0981C2.60884 14.9636 4.44354 16.7289 6.88981 16.7289C8.16465 16.7289 9.0051 16.396 9.64236 16.114L10.0247 17.8029Z" fill="#231F20"/>
<path d="M23.7614 5.88261C23.8375 6.90641 23.8635 7.95468 23.8635 9.23401V18.2631H26.0546V10.794C26.0546 10.4105 26.1056 10.0264 26.2334 9.69451C26.5904 8.5679 27.6093 7.44294 29.011 7.44294C30.7182 7.44294 31.5847 8.87534 31.5847 10.8453V18.2631H33.7764V10.6152C33.7764 10.2053 33.8525 9.79633 33.9542 9.48988C34.3366 8.38906 35.3305 7.44294 36.605 7.44294C38.414 7.44294 39.2805 8.87534 39.2805 11.2545V18.2631H41.4719V10.9729C41.4719 6.67633 39.0513 5.60129 37.4201 5.60129C36.248 5.60129 35.4326 5.9084 34.6936 6.47071C34.1838 6.85517 33.7 7.39137 33.3176 8.08294H33.2663C32.7314 6.62476 31.4572 5.60129 29.775 5.60129C27.7368 5.60129 26.5904 6.70079 25.9021 7.87732H25.8253L25.7236 5.88261H23.7614Z" fill="#231F20"/>
<path fill-rule="evenodd" clip-rule="evenodd" d="M44.4856 9.92459C44.4856 8.33782 44.4345 7.05947 44.3838 5.88261H46.3967L46.4991 8.00592H46.5498C47.467 6.49649 48.9197 5.60129 50.9329 5.60129C53.9143 5.60129 56.1557 8.13319 56.1557 11.8935C56.1557 16.3444 53.4556 18.5444 50.5505 18.5444C48.9197 18.5444 47.4924 17.8284 46.7537 16.6003H46.7026V23.3276H44.4856V9.92459ZM46.7026 13.2244C46.7026 13.5567 46.7537 13.8638 46.8044 14.1451C47.2124 15.7051 48.5627 16.7788 50.1682 16.7788C52.538 16.7788 53.9143 14.8357 53.9143 11.9963C53.9143 9.51468 52.6144 7.39137 50.2449 7.39137C48.7158 7.39137 47.2888 8.4922 46.8558 10.1805C46.779 10.4611 46.7026 10.794 46.7026 11.1015V13.2244Z" fill="#231F20"/>
<path fill-rule="evenodd" clip-rule="evenodd" d="M89.0546 18.2631C88.9028 17.4195 88.8517 16.3699 88.8517 15.2962V10.6654C88.8517 8.18476 87.9345 5.60129 84.1627 5.60129C82.6086 5.60129 81.1302 6.03567 80.1103 6.70079L80.6201 8.18476C81.4866 7.62245 82.684 7.2641 83.8307 7.2641C86.3534 7.2641 86.6343 9.10575 86.6343 10.1292V10.3851C81.8692 10.3593 79.2178 11.9963 79.2178 14.9891C79.2178 16.7788 80.4933 18.5444 82.9896 18.5444C84.7483 18.5444 86.0732 17.6753 86.7608 16.7031H86.8369L87.0167 18.2631H89.0546ZM81.4619 14.7332C81.4619 12.3286 84.2385 11.8935 86.6854 11.9451V14.0935C86.6854 14.3243 86.6343 14.5798 86.5583 14.8102C86.1999 15.8581 85.1823 16.8823 83.5749 16.8823C82.4281 16.8823 81.4619 16.1914 81.4619 14.7332Z" fill="#231F20"/>
<path fill-rule="evenodd" clip-rule="evenodd" d="M102.623 0.102112V15.0661C102.623 16.1656 102.647 17.4195 102.725 18.2631H100.712L100.61 16.114H100.559C99.8708 17.4958 98.3677 18.5444 96.3532 18.5444C93.3718 18.5444 91.0787 16.0125 91.0787 12.2522C91.0536 8.13319 93.6013 5.60128 96.6091 5.60128C98.4949 5.60128 99.7684 6.49649 100.329 7.49418H100.381V0.102112H102.623ZM100.381 10.9216C100.381 10.641 100.354 10.2565 100.278 9.97484C99.9469 8.54343 98.7244 7.36657 97.0412 7.36657C94.723 7.36657 93.3474 9.41286 93.3474 12.1494C93.3474 14.6562 94.5696 16.7289 96.9898 16.7289C98.4949 16.7289 99.8708 15.7312 100.278 14.0423C100.354 13.7352 100.381 13.4287 100.381 13.0704V10.9216Z" fill="#231F20"/>
<path d="M107.955 18.2631H105.712V5.88261H107.955V18.2631Z" fill="#231F20"/>
<path d="M106.781 3.78509C107.674 3.78509 108.235 3.17187 108.208 2.40426C108.208 1.61087 107.674 0.997321 106.832 0.997321C106.017 0.997321 105.432 1.61087 105.432 2.40426C105.432 3.17187 105.993 3.78509 106.781 3.78509Z" fill="#231F20"/>
<path fill-rule="evenodd" clip-rule="evenodd" d="M119.68 15.2962C119.68 16.3699 119.731 17.4195 119.883 18.2631H117.846L117.666 16.7031H117.59C116.902 17.6753 115.577 18.5444 113.818 18.5444C111.322 18.5444 110.046 16.7788 110.046 14.9891C110.046 11.9963 112.698 10.3593 117.463 10.3851V10.1292C117.463 9.10575 117.183 7.2641 114.66 7.2641C113.513 7.2641 112.315 7.62245 111.449 8.18476L110.939 6.70079C111.959 6.03567 113.437 5.60129 114.991 5.60129C118.763 5.60129 119.68 8.18476 119.68 10.6654V15.2962ZM117.514 11.9451C115.067 11.8935 112.291 12.3286 112.291 14.7332C112.291 16.1914 113.257 16.8823 114.404 16.8823C116.011 16.8823 117.029 15.8581 117.387 14.8102C117.463 14.5798 117.514 14.3243 117.514 14.0935V11.9451Z" fill="#231F20"/>
<path d="M125.262 5.8826V2.91599L123.071 3.60624V5.8826H121.161V7.59698H123.071V14.3494C123.071 15.8069 123.3 16.9077 123.938 17.5725C124.473 18.1861 125.313 18.5444 126.36 18.5444C127.226 18.5444 127.914 18.3904 128.346 18.2119L128.245 16.5233C127.914 16.6257 127.558 16.6773 126.945 16.6773C125.696 16.6773 125.262 15.8069 125.262 14.2727V7.59698H128.475V5.8826H125.262Z" fill="#231F20"/>
<path fill-rule="evenodd" clip-rule="evenodd" d="M141.355 11.9709C141.355 16.5491 138.195 18.5444 135.214 18.5444C131.877 18.5444 129.303 16.0886 129.303 12.1755C129.303 8.0317 132.004 5.60129 135.419 5.60129C138.96 5.60129 141.355 8.18476 141.355 11.9709ZM131.57 12.0981C131.57 14.8102 133.124 16.8562 135.316 16.8562C137.457 16.8562 139.062 14.8357 139.062 12.0479C139.062 9.95038 138.018 7.28955 135.368 7.28955C132.716 7.28955 131.57 9.74476 131.57 12.0981Z" fill="#231F20"/>
<path d="M143.574 5.88261C143.65 7.03368 143.677 8.28757 143.677 9.74476V18.2631H145.894V11.6634C145.894 11.2803 145.944 10.9216 145.995 10.6152C146.302 8.92691 147.422 7.72426 149.003 7.72426C149.308 7.72426 149.537 7.75005 149.766 7.80129V5.67831C149.564 5.62674 149.385 5.60129 149.13 5.60129C147.627 5.60129 146.276 6.65054 145.714 8.31302H145.614L145.536 5.88261H143.574Z" fill="#231F20"/>
</svg>
