<svg width="40" height="40" viewBox="0 0 40 40" fill="none" xmlns="http://www.w3.org/2000/svg">
<path fill-rule="evenodd" clip-rule="evenodd" d="M18.3065 25.1783C17.8151 26.4173 17.5457 27.7671 17.5457 29.1826C17.5457 35.1525 22.3701 39.9942 28.3188 39.9942C34.2701 39.9942 39.0929 35.1525 39.0929 29.1826C39.0929 23.2087 34.831 20.1191 34.831 20.1191C37.5447 18.0901 39.4627 15.0986 39.4627 11.2243C39.4627 5.08178 34.4029 0.141287 28.2872 0.141287C22.1695 0.141287 17.3116 5.22724 17.3116 11.2243C17.3116 17.2213 12.9153 17.7912 10.5754 17.7912C8.73742 17.7912 3.76847 16.0296 3.89592 10.657C4.13864 5.64873 8.4509 3.94889 10.8929 3.94889C11.6853 3.94889 12.2402 4.11451 12.2402 4.11451L14.9667 0.978312C14.9667 0.978312 13.3161 0.155501 10.991 0.100295C5.32226 -0.0349118 0.146817 4.50261 0.00322824 10.5638C-0.140031 16.6262 4.50189 21.6058 10.5069 21.7476C16.5139 21.8914 19.4627 17.8504 19.4627 17.8504C21.4242 20.4891 24.5674 22.1641 28.2108 22.1641C32.2467 22.1641 35.133 25.4183 35.133 29.2127C35.133 33.0091 32.0682 36.0874 28.2872 36.0874C24.5051 36.0874 21.4404 33.0091 21.4404 29.2127C21.4404 28.7737 21.4812 28.3453 21.5612 27.9267L18.3065 25.1783ZM28.2533 4.45302C24.5651 4.45302 21.5744 7.45534 21.5744 11.1565C21.5744 14.8586 24.5651 17.8616 28.2533 17.8616C31.9418 17.8616 34.9318 14.8586 34.9318 11.1565C34.9318 7.45534 31.9418 4.45302 28.2533 4.45302Z" fill="#C8102E"/>
</svg>
